<svg xmlns="http://www.w3.org/2000/svg" viewBox="0 0 64 64">
  <defs>
    <radialGradient id="bg" cx="50%" cy="40%" r="70%">
      <stop offset="0%" stop-color="#2a0e47"/>
      <stop offset="100%" stop-color="#080510"/>
    </radialGradient>
    <radialGradient id="ball" cx="38%" cy="32%" r="72%">
      <stop offset="0%" stop-color="#ffffff"/>
      <stop offset="22%" stop-color="#e6c8f7"/>
      <stop offset="55%" stop-color="#9b3fd4"/>
      <stop offset="100%" stop-color="#2a0e47"/>
    </radialGradient>
    <clipPath id="c"><circle cx="32" cy="33" r="19"/></clipPath>
  </defs>
  <rect width="64" height="64" rx="14" fill="url(#bg)"/>
  <circle cx="32" cy="33" r="19" fill="url(#ball)"/>
  <g clip-path="url(#c)" stroke="rgba(8,5,16,0.45)" stroke-width="1.1">
    <path d="M13 23h38M13 28h38M13 33h38M13 38h38M13 43h38"/>
    <path d="M18 14v38M23 14v38M28 14v38M32 14v38M37 14v38M42 14v38M47 14v38"/>
  </g>
  <ellipse cx="26" cy="26" rx="5" ry="3.4" fill="#ffffff" opacity="0.85"/>
  <rect x="30.5" y="11" width="3" height="4" rx="1" fill="#dbdbe6"/>
</svg>
